<svg xmlns="http://www.w3.org/2000/svg" viewBox="0 0 2000 500"><path fill="#fff" d="M1221 0v304c-16 26-37 56-63 87-13 14-28 25-45 34a128 128 0 0 1-103 4 118 118 0 0 1-62-65 132 132 0 0 1 0-97c6-15 14-28 24-39 11-11 23-20 37-26s29-9 46-9c22 0 41 4 55 13 16 10 31 21 44 35l6 6 46-47-6-6c-8-9-17-17-27-24a169 169 0 0 0-71-34 212 212 0 0 0-99 3H769V37h-69v102H537a274 274 0 0 0-118 4c-20 4-40 11-60 20l-7 3 21 57 9-4a264 264 0 0 1 102-24c31 0 54 8 70 22 16 13 25 33 25 62v1a443 443 0 0 0-99-12c-22 0-43 2-62 7s-36 12-50 22l-9 7c-6-12-15-23-27-32-26-22-66-38-119-49-26-5-47-11-63-16-16-6-28-12-36-18-9-7-14-14-17-21a68 68 0 0 1 1-52c4-8 10-14 18-20s17-11 29-15a196 196 0 0 1 105 6c21 8 43 20 64 37l7 5 41-53-7-5a265 265 0 0 0-235-48c-19 6-36 16-51 28a119 119 0 0 0-47 96c0 19 4 37 10 52 7 16 18 29 32 40 13 11 31 20 51 28 21 8 45 14 72 20 24 5 44 10 59 16 16 5 27 11 35 17 8 7 14 13 17 21 3 7 4 15 4 25 0 21-8 37-25 50s-41 20-71 20a209 209 0 0 1-156-63l-6-5-44 50 6 6c29 25 59 44 91 57h1a301 301 0 0 0 173 8 156 156 0 0 0 70-44c7 10 16 19 26 27 14 9 28 16 44 21h1a186 186 0 0 0 130-12c14-8 26-17 37-27v38h66V278c0-31-6-57-18-78h73v195c0 17 3 33 8 46 6 14 13 25 23 33v1c10 8 21 14 35 18a149 149 0 0 0 76 1c11-2 22-6 31-11l5-3v-61l-12 6a103 103 0 0 1-47 11c-16 0-28-4-37-11-8-6-13-17-13-37V200h141a189 189 0 0 0 12 246c17 17 37 30 59 40a203 203 0 0 0 160-5c23-12 57-37 77-68l3-6v85h69V291c0-15 2-28 6-40 5-12 12-22 21-30 8-9 18-16 30-20 12-5 25-7 38-7 30 0 51 8 65 24 15 17 23 39 23 69v205h69V275c0-21-4-40-10-58-7-17-16-33-28-45-12-13-27-23-45-30-17-7-37-10-59-10a134 134 0 0 0-110 49V0h-69zm710 0v326l-3 6c-11 18-38 41-64 59-26 19-53 33-61 36h-1l-1 1c-15 8-34 12-57 12a117 117 0 0 1-76-27 115 115 0 0 1-37-71h273l1-7 1-9v-8c0-25-4-49-11-72-8-23-19-43-34-59a166 166 0 0 0-126-55 169 169 0 0 0-126 54c-15 16-27 36-36 58a200 200 0 0 0 2 147c9 22 23 42 39 58v1a182 182 0 0 0 128 50c34 0 63-6 87-18 15-8 64-33 102-65v75h69V0h-69zm-197 191c17 0 30 3 42 8v1c13 5 23 13 31 22a123 123 0 0 1 28 67h-204c2-13 5-24 10-34a113 113 0 0 1 54-56c12-6 25-8 39-8zM486 322c21 0 39 1 55 4l38 8v26a71 71 0 0 1-31 59c-9 7-21 13-34 18a141 141 0 0 1-74 2c-9-3-17-7-25-12-7-5-12-12-17-19-3-7-5-15-5-24 0-20 7-34 22-45 16-11 39-17 71-17z"/></svg>