<?xml version="1.0" encoding="UTF-8" standalone="no"?>
<!-- Created with Inkscape (http://www.inkscape.org/) -->

<svg
   width="2000"
   height="500"
   viewBox="0 0 2000 500"
   version="1.1"
   id="svg5"
   sodipodi:docname="SatchelLogo.svg"
   inkscape:version="1.2.2 (732a01da63, 2022-12-09)"
   xmlns:inkscape="http://www.inkscape.org/namespaces/inkscape"
   xmlns:sodipodi="http://sodipodi.sourceforge.net/DTD/sodipodi-0.dtd"
   xmlns="http://www.w3.org/2000/svg"
   xmlns:svg="http://www.w3.org/2000/svg">
  <sodipodi:namedview
     id="namedview7"
     pagecolor="#505050"
     bordercolor="#ffffff"
     borderopacity="1"
     inkscape:showpageshadow="false"
     inkscape:pageopacity="0"
     inkscape:pagecheckerboard="1"
     inkscape:deskcolor="#505050"
     inkscape:document-units="mm"
     showgrid="false"
     inkscape:zoom="0.35355339"
     inkscape:cx="1179.4541"
     inkscape:cy="520.43059"
     inkscape:window-width="2560"
     inkscape:window-height="1417"
     inkscape:window-x="1912"
     inkscape:window-y="-8"
     inkscape:window-maximized="1"
     inkscape:current-layer="text852" />
  <defs
     id="defs2">
    <rect
       x="-18.21961"
       y="209.12944"
       width="422.21967"
       height="282.80005"
       id="rect846" />
    <rect
       x="64.976189"
       y="253.18307"
       width="264.38586"
       height="227.41666"
       id="rect790" />
  </defs>
  <g
     inkscape:label="Layer 1"
     inkscape:groupmode="layer"
     id="layer1">
    <text
       xml:space="preserve"
       transform="scale(0.26458333)"
       id="text788"
       style="font-style:normal;font-variant:normal;font-weight:normal;font-stretch:normal;font-size:96px;font-family:Gotham;-inkscape-font-specification:Gotham;white-space:pre;shape-inside:url(#rect790);display:inline;fill:#ffffff"><tspan
         x="64.976562"
         y="571.34118"
         id="tspan7040"><tspan
           dx="0 75.264038 47.807922 63.743958 55.584045 47.807922"
           id="tspan7038">Gsdasd</tspan></tspan></text>
    <text
       xml:space="preserve"
       transform="scale(0.26458333)"
       id="text844"
       style="font-style:normal;font-variant:normal;font-weight:normal;font-stretch:normal;font-size:96px;font-family:Gotham;-inkscape-font-specification:Gotham;white-space:pre;shape-inside:url(#rect846);display:inline;fill:#ffffff" />
    <g
       aria-label="Satchel"
       id="text852"
       style="font-size:25.4px;font-family:Gotham;-inkscape-font-specification:Gotham;fill:#ffffff;stroke:#ffffff;stroke-width:0.64252;stroke-dasharray:none;stroke-opacity:1"
       transform="matrix(26.440108,0,0,25.65507,-71.571923,6.8977405)">
      <path
         d="m 5.8705836,5.2593979 q 0,-0.6096 0.2540031,-1.143 0.279403,-0.5334 0.7620084,-0.9144 0.5080052,-0.381 1.193813,-0.6096 0.711208,-0.2286 1.5748177,-0.2286 1.3716152,0 2.6162302,0.4572 1.270014,0.4572 2.514627,1.4732 l 1.168412,-1.5494 q -1.371616,-1.0922 -2.844832,-1.6256 -1.447815,-0.55880002 -3.4036368,-0.55880002 -1.2700142,0 -2.3368261,0.381 -1.0668115,0.35560002 -1.8542203,1.01600002 -0.787409,0.635 -1.2192138,1.524 -0.4318048,0.889 -0.4318048,1.9558 0,1.1176 0.3556043,1.9304 0.3556036,0.8128 1.0922118,1.4224 0.7366083,0.6096 1.8542208,1.0414 1.1430126,0.4318001 2.6670294,0.7620001 1.3970155,0.3048 2.2860265,0.635 0.914407,0.3302 1.422416,0.7366 0.508007,0.4064 0.711204,0.9144 0.203203,0.4826 0.203203,1.1176 0,1.3716 -1.09221,2.2098 -1.06681,0.8382 -2.870232,0.8382 -1.8542206,0 -3.2766366,-0.6096 -1.4224156,-0.635 -2.819431,-1.905 l -1.244614,1.4732 q 1.6002177,1.4478 3.3528373,2.159 1.7780197,0.6858 3.9116433,0.6858 1.320815,0 2.438424,-0.3556 1.117618,-0.3556 1.905023,-1.016 0.812811,-0.6604 1.270014,-1.6002 0.457207,-0.9398 0.457207,-2.0828 0,-2.0574 -1.422415,-3.2258 -1.397016,-1.1684001 -4.36885,-1.8288001 -1.4732161,-0.3048 -2.4130266,-0.635 -0.9398106,-0.3556 -1.4732164,-0.762 -0.5334056,-0.4318 -0.7366082,-0.9398 -0.2032022,-0.508 -0.2032022,-1.143 z"
         id="path1024"
         style="stroke:#ffffff;stroke-width:0.64252;stroke-dasharray:none;stroke-opacity:1" />
      <path
         d="m 20.996978,7.0119979 q 1.854223,0 2.870231,0.9144 1.041415,0.889 1.041415,2.6670001 v 0.4572 q -0.889012,-0.254 -1.82882,-0.4064 -0.939815,-0.1524 -2.209828,-0.1524 -1.244613,0 -2.286023,0.2794 -1.016011,0.2794 -1.77802,0.8128 -0.736608,0.5334 -1.143011,1.3462 -0.406408,0.7874 -0.406408,1.8288 0,1.0414 0.406408,1.8034 0.431804,0.762 1.117609,1.2954 0.711211,0.508 1.574819,0.762 0.889008,0.254 1.803422,0.254 1.752618,0 2.895632,-0.6858 1.168411,-0.6858 1.85422,-1.5748 v 1.9812 h 1.879619 v -8.0264 q 0,-2.6162001 -1.447816,-3.9370001 -1.447816,-1.3462 -4.140245,-1.3462 -1.447817,0 -2.565427,0.3048 -1.117612,0.2794 -2.209828,0.7874 l 0.584209,1.6002 q 0.914407,-0.4318 1.854222,-0.6858 0.965208,-0.2794 2.13362,-0.2794 z m 0.07623,4.9276001 q 1.219213,0 2.159026,0.1778 0.96521,0.1778 1.701816,0.381 v 1.27 q 0,0.7874 -0.3556,1.4478 -0.330205,0.635 -0.939814,1.1176 -0.584204,0.4572 -1.397017,0.7366 -0.787405,0.254 -1.701818,0.254 -0.660404,0 -1.270015,-0.1778 -0.584202,-0.1778 -1.041409,-0.508 -0.457207,-0.3556 -0.736608,-0.8382 -0.254002,-0.4826 -0.254002,-1.1176 0,-1.27 0.99061,-2.0066 0.99061,-0.7366 2.844831,-0.7366 z"
         id="path1026"
         style="stroke:#ffffff;stroke-width:0.64252;stroke-dasharray:none;stroke-opacity:1" />
      <path
         d="m 31.468553,7.1897979 h 9.410815 v -1.7272 h -9.410815 v -3.9624 h -1.955822 v 3.9624 h -6.695726 v 1.7272 h 6.695726 v 7.9248001 c 0,0.6604 0.09314,1.227667 0.279404,1.7018 0.186267,0.474133 0.440269,0.8636 0.762006,1.1684 0.338672,0.287867 0.73661,0.499533 1.193813,0.635 0.457207,0.135467 0.948279,0.2032 1.473216,0.2032 0.474141,0 0.897479,-0.0508 1.270015,-0.1524 0.389471,-0.08467 0.753542,-0.220133 1.092215,-0.4064 v -1.6764 c -0.338673,0.169333 -0.660411,0.287867 -0.965214,0.3556 -0.287868,0.06773 -0.601138,0.1016 -0.939809,0.1016 -0.660406,0 -1.193812,-0.160867 -1.600219,-0.4826 -0.406403,-0.321733 -0.609605,-0.889 -0.609605,-1.7018 z"
         id="path1028"
         style="stroke:#ffffff;stroke-width:0.64252;stroke-dasharray:none;stroke-opacity:1"
         sodipodi:nodetypes="ccccccccccsscssccccsssc" />
      <path
         d="M 48.604081,15.475315 46.74075,15.190798 c -0.524941,0.5588 -1.117614,1.024467 -1.77802,1.397 -0.643474,0.372533 -1.38855,0.5588 -2.235227,0.5588 -0.694275,0 -1.337748,-0.127 -1.93042,-0.381 -0.57574,-0.270933 -1.083746,-0.635 -1.524017,-1.0922 -0.423339,-0.474133 -0.762009,-1.024467 -1.01601,-1.651 -0.237069,-0.626533 -0.355604,-1.2954 -0.355604,-2.0066 0,-0.7112 0.118535,-1.3716 0.355604,-1.9812 0.237067,-0.6265334 0.56727,-1.1684001 0.99061,-1.6256001 0.423337,-0.4741333 0.922877,-0.8382 1.498618,-1.0922 0.575737,-0.2709333 1.193811,-0.4064 1.85422,-0.4064 0.897476,0 1.651018,0.1947333 2.260625,0.5842 0.626539,0.3894667 1.202279,0.8551333 1.72722,1.397 l 1.295412,-1.3716 c -0.304805,-0.3217333 -0.635008,-0.6265333 -0.99061,-0.9144 -0.355605,-0.2878667 -0.745076,-0.5334 -1.168414,-0.7366 -0.423337,-0.2201333 -0.889009,-0.3894667 -1.397015,-0.508 -0.508005,-0.1185333 -1.075278,-0.1778 -1.701818,-0.1778 -0.965211,0 -1.862688,0.1862667 -2.692431,0.5588 -0.81281,0.3556 -1.524017,0.8466667 -2.133622,1.4732 -0.592675,0.6265333 -1.058348,1.3631333 -1.397017,2.2098 -0.338671,0.8297331 -0.508006,1.7102671 -0.508006,2.6416001 0,0.931333 0.169335,1.811867 0.508006,2.6416 0.338669,0.829733 0.804342,1.557867 1.397017,2.1844 0.609605,0.6096 1.320812,1.100667 2.133622,1.4732 0.829743,0.3556 1.72722,0.5334 2.692431,0.5334 1.236145,0 2.26909,-0.237067 3.098833,-0.7112 0.846677,-0.474133 2.218937,-1.525675 2.879344,-2.712683 z"
         id="path1030"
         style="stroke:#ffffff;stroke-width:0.64252;stroke-dasharray:none;stroke-opacity:1"
         sodipodi:nodetypes="cccscccscccscccscsscccssccscc" />
      <path
         d="m 51.166991,11.075998 q 0,-0.9144 0.279401,-1.6764001 0.304805,-0.762 0.838212,-1.2954 0.533405,-0.5588 1.244614,-0.8382 0.736607,-0.3048 1.574817,-0.3048 1.75262,0 2.69243,1.0668 0.939811,1.0668 0.939811,2.8956001 v 7.6708 h 1.95582 v -8.1534 q 0,-1.1684001 -0.355605,-2.1336001 -0.330202,-0.9652 -0.990609,-1.651 -0.635008,-0.7112 -1.574817,-1.0922 -0.91441,-0.381 -2.108225,-0.381 -1.701818,0 -2.768632,0.762 -1.06681,0.7366 -1.727217,1.8034 V 0.05239788 H 49.211169 V 18.594398 h 1.955822 z"
         id="path1032"
         style="stroke:#ffffff;stroke-width:0.64252;stroke-dasharray:none;stroke-opacity:1" />
      <path
         d="m 64.026136,12.752398 h 10.414117 c 0.01692,-0.118533 0.02538,-0.2286 0.02538,-0.3302 v -0.2794 c 0,-0.9652 -0.135468,-1.871133 -0.406404,-2.7178001 -0.270937,-0.8466667 -0.668875,-1.5832667 -1.193815,-2.2098 -0.524939,-0.6265333 -1.168412,-1.1176 -1.930419,-1.4732 -0.762009,-0.3725333 -1.625618,-0.5588 -2.590829,-0.5588 -0.914411,0 -1.761087,0.1778 -2.54003,0.5334 -0.762008,0.3556 -1.422415,0.8466667 -1.981221,1.4732 -0.558807,0.6096 -0.999079,1.3377333 -1.320814,2.1844 -0.304804,0.8297331 -0.457206,1.7187331 -0.457206,2.6670001 0,1.016 0.169335,1.947333 0.508005,2.794 0.355603,0.846667 0.829742,1.5748 1.422417,2.1844 0.592673,0.592667 1.286946,1.058333 2.082821,1.397 0.795877,0.321733 1.642553,0.4826 2.54003,0.4826 1.25308,0 2.302958,-0.220133 3.149634,-0.6604 0.846677,-0.4572 4.398997,-2.344628 5.361975,-4.298034 l -1.219212,-1.0922 c -0.957909,1.572245 -4.055256,3.541146 -4.90477,3.840834 -0.643475,0.338667 -1.422417,0.508 -2.336827,0.508 -0.575739,0 -1.126079,-0.09313 -1.651018,-0.2794 -0.524939,-0.2032 -0.999077,-0.491067 -1.422416,-0.8636 -0.423337,-0.389467 -0.770475,-0.855133 -1.041413,-1.397 -0.270935,-0.5588 -0.44027,-1.1938 -0.508005,-1.905 z m 0,-1.4478 c 0.06774,-0.643467 0.220138,-1.236133 0.457205,-1.7780001 0.23707,-0.5418667 0.541874,-1.0075333 0.914411,-1.397 0.372537,-0.4064 0.804341,-0.7196667 1.295414,-0.9398 0.491072,-0.2370667 1.024478,-0.3556 1.600219,-0.3556 0.660406,0 1.236145,0.127 1.727218,0.381 0.508006,0.2370667 0.931344,0.5588 1.270015,0.9652 0.355603,0.4064 0.62654,0.8805333 0.812809,1.4224 0.203203,0.5418671 0.330204,1.1091331 0.381003,1.7018001 z"
         id="path1034"
         style="stroke:#ffffff;stroke-width:0.64252;stroke-dasharray:none;stroke-opacity:1"
         sodipodi:nodetypes="ccsssscscccscccsccccsccccccsccsccccc" />
      <path
         d="M 78.028344,18.594398 V 0.05239788 H 76.072523 V 18.594398 Z"
         id="path1036"
         style="stroke:#ffffff;stroke-width:0.64252;stroke-dasharray:none;stroke-opacity:1" />
      <path
         style="fill:#ffffff;stroke:#ffffff;stroke-width:0.64252;stroke-dasharray:none;stroke-opacity:1"
         d="m 46.691815,15.251617 c 3.28125,-4.03125 4.492188,-7.4804691 4.492188,-7.4804691 l -0.03125,0.03125 0.5625,1.0000001 -3.113281,6.683594 z"
         id="path6897"
         sodipodi:nodetypes="cccccc" />
    </g>
  </g>
</svg>
