<svg xmlns="http://www.w3.org/2000/svg" width="18" height="18">
  <path fill="#00A2FF" d="M0 0h18v18H0z"/>
  <path fill="#fff" d="M6.74 6.74a1.65 1.65 0 0 1 .03-1.25c.1-.2.24-.36.43-.5.2-.14.43-.26.71-.36.3-.08.62-.13.98-.13.58 0 1.14.1 1.67.28.53.19 1.07.5 1.6.92l.24.18 1.15-1.48-.23-.18A6.84 6.84 0 0 0 7.25 3c-.5.17-.95.4-1.34.72a3.11 3.11 0 0 0-1.23 2.51c0 .52.1.98.27 1.38.18.4.46.75.82 1.04.36.3.81.53 1.34.73.53.2 1.14.37 1.84.51.62.13 1.12.27 1.5.4.4.15.69.3.88.44l.02.02c.19.15.3.3.37.46.07.18.11.38.11.62 0 .5-.2.9-.61 1.21-.42.32-1 .5-1.77.5-.8 0-1.5-.13-2.1-.38a6.99 6.99 0 0 1-1.82-1.2l-.22-.2-1.22 1.41.22.2a8.02 8.02 0 0 0 2.34 1.46h.01a7.62 7.62 0 0 0 4.48.23c.53-.17.99-.4 1.38-.72a3.37 3.37 0 0 0 1.27-2.64c0-.98-.35-1.77-1.07-2.34A7.4 7.4 0 0 0 9.65 8.1l-.12-.02c-.6-.13-1.09-.25-1.47-.38-.4-.15-.7-.3-.91-.46a1.12 1.12 0 0 1-.4-.5Z"/>
</svg>