<svg xmlns="http://www.w3.org/2000/svg" width="18" height="18">
  <g clip-path="url(#a)">
    <path fill="#fff" d="M18 18H0V0h18v18ZM8.97 3.13a4.73 4.73 0 0 0-2.8.9 2.87 2.87 0 0 0-1.13 2.31c0 .5.08.92.24 1.3.17.36.42.68.76.95.33.27.74.49 1.24.67.5.19 1.07.35 1.73.48.59.13 1.06.26 1.43.39.38.13.66.28.85.43.2.15.32.3.4.48.07.17.1.37.1.61 0 .5-.2.9-.6 1.21-.42.31-.98.48-1.72.48-.77 0-1.44-.12-2.01-.36a6.69 6.69 0 0 1-1.75-1.15l-.15-.13-1.06 1.22.15.13a7.5 7.5 0 0 0 2.2 1.37 7.15 7.15 0 0 0 4.19.21c.5-.15.92-.37 1.28-.66a3.11 3.11 0 0 0 1.18-2.44c0-.9-.33-1.63-.98-2.16-.63-.5-1.6-.9-2.88-1.17a12.4 12.4 0 0 1-1.51-.39 3.67 3.67 0 0 1-.89-.44c-.2-.16-.33-.33-.4-.5a1.64 1.64 0 0 1 .02-1.24c.1-.2.25-.36.43-.5a2.7 2.7 0 0 1 1.65-.48 4.97 4.97 0 0 1 3.15 1.15l.16.13 1-1.28-.17-.13a6.4 6.4 0 0 0-4.11-1.4Z"/>
  </g>
  <defs>
    <clipPath id="a">
      <path d="M0 0h18v18H0z"/>
    </clipPath>
  </defs>
</svg>