<svg xmlns="http://www.w3.org/2000/svg" width="18" height="18">
  <g clip-path="url(#a)">
    <path fill="#fff" d="M18 18H0V0h18zM8.89 2.93c-2.11 0-3.7 1.24-3.7 3.32 0 1.61 1.08 2.68 2.97 3.24l1.18.36c1.33.4 1.94.92 1.94 1.83 0 1.1-.85 1.86-2.28 1.86a4.1 4.1 0 0 1-3.04-1.41l-1.14 1.22a5.4 5.4 0 0 0 4.22 1.82c2.23 0 4.01-1.3 4.01-3.64 0-1.82-1.09-2.73-3.03-3.3l-1.24-.35C7.54 7.52 6.93 7 6.93 6.13c0-1 .83-1.57 1.96-1.57 1.02 0 1.95.38 2.78 1.23l1.1-1.3A5.4 5.4 0 0 0 8.9 2.93Z"/>
  </g>
  <defs>
    <clipPath id="a">
      <rect width="18" height="18" rx="2"/>
    </clipPath>
  </defs>
</svg>