<svg width="512" height="512" viewBox="0 0 512 512" fill="none" xmlns="http://www.w3.org/2000/svg">
<rect width="512" height="512" fill="#00A2FF"/>
<path d="M180.175 173.53C180.175 165.96 181.801 158.863 185.051 152.239C188.627 145.615 193.504 139.937 199.68 135.206C206.182 130.475 213.821 126.69 222.598 123.851C231.7 121.012 241.778 119.593 252.83 119.593C270.385 119.593 287.126 122.431 303.055 128.109C319.309 133.787 335.401 142.934 351.33 155.551L373.76 126.69C356.206 113.126 338.001 103.033 319.147 96.409C300.617 89.4697 278.837 86 253.806 86C237.552 86 222.598 88.3657 208.945 93.097C195.291 97.513 183.426 103.821 173.349 112.022C163.271 119.908 155.469 129.371 149.943 140.411C144.417 151.45 141.653 163.594 141.653 176.842C141.653 190.721 143.929 202.707 148.48 212.8C153.031 222.894 160.02 231.726 169.448 239.296C178.875 246.866 190.74 253.332 205.044 258.695C219.672 264.057 236.739 268.788 256.244 272.889C274.123 276.674 288.752 280.617 300.13 284.717C311.832 288.818 320.935 293.391 327.436 298.438C333.938 303.485 338.489 309.162 341.089 315.471C343.69 321.464 344.99 328.403 344.99 336.289C344.99 353.322 338.001 367.043 324.023 377.452C310.37 387.861 292.003 393.065 268.922 393.065C245.191 393.065 224.223 389.28 206.019 381.71C187.815 373.824 169.773 361.996 151.893 346.225L128 373.667C148.48 391.646 169.935 405.051 192.366 413.883C215.121 422.4 240.152 426.658 267.459 426.658C284.363 426.658 299.967 424.45 314.27 420.034C328.574 415.618 340.764 409.309 350.842 401.108C361.244 392.907 369.371 382.972 375.223 371.301C381.074 359.63 384 346.698 384 332.504C384 306.954 374.898 286.925 356.693 272.416C338.814 257.906 310.857 246.551 272.823 238.35C253.968 234.565 238.527 230.622 226.499 226.521C214.471 222.105 205.044 217.374 198.217 212.327C191.39 206.965 186.677 201.13 184.076 194.821C181.476 188.513 180.175 181.416 180.175 173.53Z" fill="white" stroke="white" stroke-width="16.7342"/>
</svg>
