<svg xmlns="http://www.w3.org/2000/svg" width="512" height="512" fill="#00A2FF">
  <path d="M0 0h512v512H0z"/>
  <path fill="#fff" stroke="#fff" stroke-width="16.7" d="M180 174c0-8 2-15 5-22 4-6 9-12 15-17s14-8 23-11 19-4 30-4a148 148 0 0 1 98 36l23-29a186 186 0 0 0-165-34c-14 5-26 11-36 19s-18 17-23 28c-6 11-8 24-8 37 0 14 2 26 6 36 5 10 12 19 21 26 10 8 22 14 36 20 15 5 32 10 51 14l44 12c12 4 21 8 27 13a44 44 0 0 1 18 38c0 17-7 31-21 41a89 89 0 0 1-55 16c-24 0-45-4-63-11-18-8-36-20-54-36l-24 28c20 18 42 31 64 40a213 213 0 0 0 122 6c15-4 27-11 37-19a89 89 0 0 0 33-68c0-26-9-46-27-61-18-14-46-25-84-34-19-3-34-7-47-11-12-5-21-10-28-15a44 44 0 0 1-18-38Z"/>
</svg>