<svg width="512" height="512" viewBox="0 0 512 512" fill="none" xmlns="http://www.w3.org/2000/svg">
<g clip-path="url(#clip0_6_4)">
<path fill-rule="evenodd" clip-rule="evenodd" d="M512 0H0V512H512V0ZM255.097 89C239.183 89 224.412 91.314 210.836 96.0106C197.357 100.377 185.52 106.648 175.405 114.87C165.247 122.828 157.325 132.427 151.71 143.644C146.054 154.943 143.261 167.32 143.261 180.678C143.261 194.421 145.513 206.601 150.226 217.055C154.937 227.502 162.144 236.562 171.701 244.237C181.201 251.865 192.996 258.254 206.954 263.487L206.974 263.494L206.993 263.501C221.15 268.691 237.571 273.235 256.221 277.156C272.989 280.706 286.546 284.371 296.968 288.128L296.992 288.136L297.016 288.145C307.767 291.912 315.745 295.987 321.224 300.24C326.746 304.527 330.343 309.135 332.349 314.003L332.37 314.052L332.391 314.1C334.48 318.914 335.606 324.673 335.606 331.505C335.606 345.753 329.892 357.042 318.086 365.834L318.06 365.853L318.034 365.873C306.415 374.731 290.4 379.466 269.396 379.466C247.572 379.466 228.524 375.988 212.139 369.181C195.583 362.004 179.032 351.181 162.496 336.594L158.158 332.768L128 367.405L132.301 371.181C152.108 388.569 172.963 401.625 194.873 410.252L194.919 410.27L194.964 410.287C217.209 418.612 241.579 422.736 268.012 422.736C284.504 422.736 299.843 420.581 313.988 416.214C328.101 411.857 340.302 405.581 350.48 397.307C360.956 389.04 369.176 378.992 375.088 367.2C381.058 355.293 384 342.166 384 327.925C384 302.211 374.745 281.537 356.024 266.607C338.083 252.055 310.614 241.074 274.298 233.243L274.257 233.234L274.217 233.226C256.55 229.68 242.23 226.015 231.185 222.254C220.161 218.202 211.839 213.977 205.997 209.674C200.149 205.066 196.436 200.312 194.45 195.495C192.317 190.322 191.194 184.369 191.194 177.545C191.194 171.277 192.524 165.465 195.17 160.037C198.138 154.571 202.173 149.864 207.336 145.898C212.911 141.852 219.547 138.544 227.316 136.029C235.285 133.547 244.221 132.27 254.175 132.27C270.148 132.27 285.33 134.851 299.755 139.993L299.772 139.999L299.789 140.005C314.461 145.13 329.127 153.436 343.781 165.043L348.327 168.644L376.641 132.213L372.08 128.689C355.059 115.538 337.321 105.681 318.866 99.1906C300.561 92.3445 279.264 89 255.097 89Z" fill="white"/>
</g>
<defs>
<clipPath id="clip0_6_4">
<rect width="512" height="512" fill="white"/>
</clipPath>
</defs>
</svg>
