<svg xmlns="http://www.w3.org/2000/svg" fill="none" viewBox="0 0 512 512"><g clip-path="url(#a)"><path fill="#fff" fill-rule="evenodd" d="M512 0H0v512h512V0ZM255 89a135 135 0 0 0-80 26c-10 8-18 17-23 29a88 88 0 0 0-1 73c4 11 11 20 21 27 9 8 21 14 35 19v1c14 5 31 9 49 13 17 4 31 7 41 11 11 4 19 8 24 12 6 5 9 9 11 14s4 11 4 18c0 14-6 25-18 34s-28 13-49 13-40-3-57-10c-16-7-33-18-50-32l-4-4-30 34 4 4c20 18 41 31 63 39a207 207 0 0 0 119 6c14-4 26-10 36-19a89 89 0 0 0 34-69c0-26-9-46-28-61-18-15-45-26-82-34-17-3-32-7-43-11s-19-8-25-12c-6-5-10-10-12-15a47 47 0 0 1 1-35c3-5 7-10 12-14l20-10c8-2 17-4 27-4a144 144 0 0 1 90 33l4 4 29-37-5-3a182 182 0 0 0-117-40Z" clip-rule="evenodd"/></g><defs><clipPath id="a"><path fill="#fff" d="M0 0h512v512H0z"/></clipPath></defs></svg>