<svg xmlns="http://www.w3.org/2000/svg" width="2000" height="500" fill="#fff">
  <path d="M1221 0v304c-40 65-107 167-211 125-156-67-27-359 150-182l46-47c-74-81-159-73-203-61H769V37h-69v102H537c-65-12-126 2-185 27l21 57c97-45 206-42 206 57-61-14-156-26-220 24-48-96-230-65-262-136-24-60 60-156 224-39l41-53C185-50 21 33 22 147c0 182 280 101 280 219 0 61-109 126-258 2L0 418c94 94 266 109 341 27 38 54 152 87 238 9v38h66V278c0-31-6-57-18-78h73v195c0 124 132 113 178 85v-61c-42 21-109 36-109-31V200h141c-96 124-9 300 145 300 64-2 136-33 166-93v85h69V291c0-125 183-136 183-4v205h69V275c0-153-179-183-252-94V0Zm710 0v326c-9 17-95 112-187 114-58 1-106-40-113-98h273c16-109-57-212-169-210-236-3-226 368 7 368 73 0 140-42 189-83v75h69V0Zm-96 289h-204c21-135 194-125 204 0zM579 334v26c0 96-186 115-186 24 0-67 80-72 186-50z"/>
</svg>